<?xml version="1.0" encoding="UTF-8"?>
<!DOCTYPE svg PUBLIC "-//W3C//DTD SVG 1.1//EN" "http://www.w3.org/Graphics/SVG/1.1/DTD/svg11.dtd">
<!-- Creator: CorelDRAW -->
<svg xmlns="http://www.w3.org/2000/svg" xml:space="preserve" width="201.879mm" height="192.732mm" version="1.1" style="shape-rendering:geometricPrecision; text-rendering:geometricPrecision; image-rendering:optimizeQuality; fill-rule:evenodd; clip-rule:evenodd"
viewBox="0 0 16354.3 15613.33"
 xmlns:xlink="http://www.w3.org/1999/xlink"
 xmlns:xodm="http://www.corel.com/coreldraw/odm/2003">
 <defs>
  <style type="text/css">
   <![CDATA[
    .fil0 {fill:black}
   ]]>
  </style>
 </defs>
 <g id="Capa_x0020_1">
  <metadata id="CorelCorpID_0Corel-Layer"/>
  <path class="fil0" d="M13695.23 460.91c49.04,45.5 46.57,76.22 110.24,26.26 33.42,-24.75 91.36,-37.96 206.16,46.88 0,0 134.77,62.26 182.29,-31.25 14.99,-32.11 48.36,-91.13 28.94,-128.98 -14.26,-27.81 -63.97,-39.65 -120.74,-5.57 0,0 24.31,-108.72 179.03,-93.75 -40.38,-42.98 -4.57,-70.96 -109.81,-89.84 0,0 111.33,-70.54 204.64,94.83 0,0 27.56,-65.53 -29.95,-139.75 0,0 -59.9,-64.88 -34.94,-139.75 18.67,50.79 24.52,62.48 129.33,142.34 49.05,39.94 103.31,93.77 88.33,253.48 0,0 63.13,80.72 144.51,-30.39 30.82,-55.57 -10.03,-89.27 -68.79,-144.96 0,0 -57.07,-52.53 -47.09,-122.4 16.5,23.01 14.11,63.52 135.43,87.78 -56.87,-63.81 -20.05,-125.57 -126.43,-151.69 78.23,-22.17 173.77,22.84 182.01,155.06 6.15,98.6 71.31,116.08 71.81,201.41 39.07,-37.77 62.63,-139.38 31.25,-181.51 -27.82,-40.62 -68.49,-117.23 -33.12,-171.22 2.17,46.88 38.13,77.15 71.09,113.46 43.78,48.23 53.59,119.41 48.31,191.53 22.86,-89.27 71.23,-93.83 94.82,-215.84 62.56,132.25 43.79,278.91 -14.27,377.48 65.89,-80.03 119.36,-115.88 208.78,-132.55 0,0 80.25,-16.79 102.65,-100.78 0,0 24.26,80.26 -111.98,214.63 0,0 89.59,-46.66 188.5,-28 0,0 -52.25,18.66 -41.06,70.92 10.12,28.8 27.35,38.08 225.18,-14.18 63.05,-16.35 273.13,-49.27 358.98,64.57 0,0 -153.04,-31.73 -207.17,7.46 0,0 24.26,74.66 78.39,65.33 0,0 -52.39,69.25 -153.34,-12.44 -18.67,-23.35 -51.21,-24.28 -83.68,1.23 0,0 14.93,59.73 95.19,61.59 0,0 -13.06,41.06 -123.18,35.46 -28.8,0.78 -74.67,27.87 -76.52,82.12 112.09,61.49 283.84,-14.15 466.6,85.53 51.37,23.36 101.85,81.99 221.42,119.75 0,0 -72.37,-3.14 -119.56,6.29 0,0 167.54,93.47 222.52,215.7 31.13,75.5 10.31,111.52 73.24,193.32 -49.81,-11.67 -123.67,-87.96 -174.37,-199.54 -35.81,-70.83 -67.89,-108.79 -288.14,-137.11 0,0 -9.45,50.34 100.68,106.97 26.47,13.23 75.52,56.63 116.42,179.34 0,0 15.73,40.9 75.51,88.1 0,0 -64.52,14.79 -105.42,-41.84 0,0 -33.02,-49.41 -58.19,-11.65 0,0 -6.29,94.39 129,223.39 94.61,100.77 252.73,175.08 207.65,449.93 -17.9,-133.09 -106.03,-137.35 -191.92,-204.52 0,0 -29.08,108.96 67.48,218.71 35.81,44.37 45.68,145.55 -14,234.37 14.01,-112.86 5.49,-142.82 -84.77,-213.54 -32.09,-21.86 -96.87,-50.94 -110.3,-119.98 0,0 -22.02,15.73 3.15,119.56 0,0 25.17,78.66 -22.03,185.64 0,0 -2.37,-98.49 -59.01,-95.34 -41.25,7 -37.73,19.32 -90.88,49.32 -51.47,29.04 39.82,26.15 48.15,136.65 1.56,35.03 -8.27,195.53 -124.8,214.57 0,0 37.75,-62.93 -44.05,-110.13 0,0 -66.07,-28.31 -75.51,-91.24 0,0 -40.89,50.34 -18.88,113.27 0,0 -18.89,-22.02 -66.08,-25.17 0,0 -38.63,123.61 77.79,233.73 28.02,33.47 20.54,79.65 -11.37,182.64 -3.89,-151 -125.19,-167.11 -152.41,-242.89 -22.57,-105.85 -77.6,-16.16 -137.39,-170.33 0,0 -40.9,72.37 9.44,141.59 0,0 69.22,59.79 56.63,119.56 0,0 -22.02,-69.22 -116.41,-72.37 0,0 -47.2,40.9 22.02,106.97 0,0 -176.19,-66.08 -207.65,-223.39 0,0 3.15,28.31 -31.46,50.34l9.44 132.15c0,0 154.17,97.54 251.71,314.64 0,0 100.68,166.75 229.68,276.88 0,0 377.56,481.4 368.13,877.84 0,0 -3.14,566.34 31.46,947.05 0,0 31.46,213.96 -84.96,490.83 0,0 -75.5,169.9 -6.29,437.34 0,0 81.83,797.97 48.28,1234.09 0,0 -11.19,413.76 89.46,715.69 0,0 61.51,178.92 -50.32,206.88 0,0 -139.78,-11.19 -167.74,67.09 0,0 27.96,150.97 -95.05,223.65 0,0 -67.1,687.72 -100.65,978.47 0,0 33.55,268.38 -44.73,821.91 0,0 -39.14,117.42 11.18,346.66 0,0 167.75,1135.01 128.6,1794.78 0,0 33.54,659.76 -123.01,1051.16 0,0 -61.49,117.42 -50.32,218.06 0,0 33.55,67.08 -16.78,223.65 0,0 -39.14,72.69 0,218.06 0,0 27.95,22.37 11.18,268.38 0,0 -11.18,234.82 22.37,335.47 0,0 -33.55,357.84 -363.43,318.7 0,0 -363.43,-83.87 -682.13,-111.83 0,0 -279.56,-22.37 -531.17,-61.5 0,0 -402.56,0.01 -262.79,-341.06 0,0 16.54,-53.82 257.84,-129.52 0,0 387.97,-189.24 430.55,-402.15 0,0 14.19,-123.01 9.46,-227.1 0,0 -47.31,-184.52 269.68,-146.67 0,0 42.58,9.46 37.85,-156.13 0,0 -61.51,-487.32 4.73,-742.81 0,0 89.9,-274.41 70.97,-411.62 0,0 -0.01,-170.32 61.5,-212.9 0,0 47.31,-66.23 -9.46,-151.4 0,0 -137.21,-208.18 -127.75,-359.58 0,0 14.2,-108.81 -70.97,-203.44 0,0 -52.05,-61.51 -56.78,-146.67 0,0 -9.45,-75.7 -75.7,-137.21 0,0 -52.04,-66.23 -4.73,-241.29 0,0 -9.47,-894.21 -56.78,-1149.7 0,0 4.73,-156.13 -52.04,-151.4 0,0 -56.76,-42.58 -70.97,165.59 0,0 -52.05,411.61 -193.99,629.26 0,0 -66.24,56.77 -99.36,340.65 0,0 33.12,104.09 -52.04,212.91 0,0 -18.92,23.66 4.73,127.75 0,0 -33.13,108.82 -113.55,175.06 0,0 -33.11,179.79 -99.35,326.46l0 1845.19c0,0 -37.85,246.04 -137.21,312.27 0,0 -108.81,61.51 0,156.13 0,0 165.59,151.4 28.39,316.99 0,0 -99.36,70.97 -94.63,269.68l14.19 198.71c0,0 18.92,18.93 -42.58,118.28 0,0 23.66,274.41 -33.12,411.61 0,0 42.59,335.93 -165.59,354.85 0,0 -236.57,9.45 -369.04,-66.24 0,0 -203.45,-37.85 -402.16,-52.04 0,0 -255.48,37.85 -392.69,-269.68 0,0 -37.85,-108.82 42.58,-170.32 0,0 255.49,-260.21 264.95,-331.19 0,0 18.93,-146.68 -4.73,-212.91 0,0 -28.39,-85.17 42.58,-151.4 0,0 47.31,-9.47 37.85,-141.94 0,0 4.74,-94.63 75.7,-165.59 0,0 137.21,-160.85 137.21,-246.02 0,0 61.5,-52.05 -85.17,-222.37 0,0 -18.92,-9.47 4.73,-118.28 0,0 47.31,-477.86 -9.46,-809.04 0,0 -66.23,-255.49 -33.12,-421.08 0,0 18.93,-179.79 -28.39,-269.68 0,0 -70.97,-113.54 4.73,-222.37 0,0 85.16,-104.08 80.43,-160.86 0,0 -89.9,-113.56 14.19,-203.45 0,0 70.98,-165.59 42.59,-387.96 0,0 -14.2,-260.22 89.89,-430.55 0,0 99.36,-175.06 70.97,-345.38 0,0 -33.13,-548.82 37.85,-889.48 70.97,-340.66 113.54,-1026.68 61.5,-1301.1 -16.74,-89.28 -134.18,-154.2 -160.86,52.04 5.58,114.39 -21.28,166.99 2.37,370.44 5.57,86.49 -119.56,27.74 -131.21,-53.3 -11.66,-81.04 19.29,-139.53 -22.56,-265.08 0,0 -202.06,118.45 -83.77,359.74 30.14,47.3 142.63,188.87 257.97,242.67 102.48,56.2 49.29,79.18 -53.94,61.53 0,0 -446.1,-77.01 -498.76,-507.81 0,0 14.18,-307.54 -61.51,-373.77 0,0 -151.4,-123.01 -33.12,-269.68 118.28,-146.67 0,-227.1 0,-227.1 0,0 -99.36,-75.7 146.67,-170.32 0,0 298.07,-132.48 151.4,-364.31 -146.67,-231.83 -66.23,-255.48 -66.23,-255.48l-2611.67 -1296.37c0,0 -75.7,-37.85 -193.98,14.19 0,0 -165.6,94.62 -383.24,-99.36 0,0 -227.1,-255.49 -326.46,-288.61 0,0 -165.59,151.4 -364.3,85.17 -198.72,-66.23 -113.55,-269.68 -113.55,-269.68 0,0 43,-94.59 142.38,-132.05 -1.3,-7.08 -1.98,-14.47 -1.98,-22.07 0,-52.8 33.07,-95.61 73.87,-95.61 40.8,0 73.87,42.81 73.87,95.61 0,3.66 -0.16,7.27 -0.47,10.83 24.65,2.1 53.69,4.94 86.2,8.44 0.42,-52.33 33.33,-94.59 73.86,-94.59 40.8,0 73.87,42.81 73.87,95.61 0,5.56 -0.36,11.01 -1.07,16.31 27.46,3.49 56.06,7.25 85.5,11.24 3.66,-48.37 35.17,-86.17 73.51,-86.17 40.8,0 73.87,42.81 73.87,95.61 0,3.89 -0.19,7.72 -0.53,11.49 26.29,3.92 52.89,8 79.64,12.18 4.2,-47.65 35.44,-84.67 73.38,-84.67 40.8,0 73.87,42.81 73.87,95.61 0,4.45 -0.24,8.82 -0.7,13.12 21.92,3.77 43.76,7.61 65.45,11.51 4.84,-46.73 35.77,-82.78 73.2,-82.78 40.8,0 73.87,42.81 73.87,95.61 0,5.11 -0.31,10.13 -0.91,15.02 26.23,5.31 51.9,10.69 76.84,16.14 7.28,-42.89 36.81,-74.98 72.14,-74.98 40.8,0 73.87,42.81 73.87,95.61 0,4.79 -0.28,9.49 -0.8,14.1 45.24,15.17 121.59,56.19 101.3,157.61 0,0 -37.85,85.15 85.17,137.2l2360.9 1083.46 9.46 -572.48c0,0 -28.39,-160.86 118.28,-288.61 0,0 75.7,-47.31 61.51,-189.25 0,0 18.92,-198.72 146.67,-387.97 0,0 146.66,-331.19 217.63,-633.99 0,0 212.91,-932.06 553.56,-998.3 0,0 529.9,-94.63 534.64,-260.22 0,0 18.93,-47.31 -165.59,-66.23 0,0 -137.21,23.66 -118.28,-217.63 0,0 23.66,-203.45 14.19,-326.46 0,0 -33.13,-123.01 47.31,-302.8 0,0 104.09,-165.59 99.36,-293.34 0,0 33.13,-132.48 -28.39,-141.94 0,0 -113.55,9.46 -118.28,94.63 0,0 -9.47,-104.09 56.77,-160.86 0,0 66.24,-33.13 66.24,-94.63 0,0 -9.47,-75.7 70.97,-85.16 0,0 -146.66,-108.81 -208.17,-9.46 0,0 -42.58,227.1 -283.88,151.4 0,0 203.44,-4.73 198.71,-127.75 0,0 -14.19,-165.59 127.75,-184.52 0,0 -75.7,-104.09 -316.99,42.58 0,0 -28.38,-246.02 231.84,-312.26 0,0 227.09,-52.04 260.21,-127.75 -3.04,-88.11 -42.97,-35.97 -152.64,-75.29 -61.51,-22.06 -132.57,-6.55 -175.6,71.31 -26.91,-64.68 57.7,-103.88 72.76,-133.22 -11.31,-27.9 -69.94,-54.94 -48.7,-97.16z"/>
  <g id="_1325885952432">
   <g>
    <path class="fil0" d="M1118.05 9291.83c-0.11,146.13 -2.94,201.29 0,329.53 17.83,6.31 19.92,7.97 47.08,11.75 18.15,-9.01 40.25,-2.21 82.37,0 12.37,-34.32 21.39,-27.59 35.31,-58.82 38.16,-54.2 -3.47,-142.34 -23.53,-176.55 33.01,4.83 33.45,14.42 58.84,0 8.85,-12.62 7.07,-11.13 11.78,-35.3l-11.78 -11.77c-27.41,3.44 -29.16,5.32 -47.08,11.77l0 -35.3 141.23 -11.77c98.28,160.18 88.93,369 35.32,588.47 -19.18,78.52 25.87,200.09 -11.79,258.93 -51.2,55.21 -98.57,55.36 -188.3,47.08 -11.83,-111.07 43.07,-195.49 47.07,-329.53 -24.59,-13.2 -21.55,-16.89 -58.83,-23.53 -8.43,-0.8 -79.5,15.43 -105.92,35.3 -46.65,64.36 -33.42,282.8 -23.56,317.77l-58.82 0.01 -105.94 -35.3c-39.53,-89.74 31.41,-194.91 0,-329.54 -6.42,-27.5 -33.41,-59.66 -23.53,-105.91 9.51,-44.67 36.37,-104.34 47.08,-141.25 36.88,-127.19 -55.44,-210.39 47.06,-282.46 26.21,-21.08 56.47,-23.51 105.93,-23.53l0 -0.01zm3530.8 0c126.83,-1.13 219.63,17.94 329.53,23.53 32.53,52.09 65.4,93.12 82.38,164.78 -78.52,59.66 -46.39,77.41 -82.38,176.52 -21.22,58.4 -74.05,54.07 -82.4,141.24 28.55,19.05 72.76,59.37 82.4,94.15 0,0 -31.72,403.02 -35.33,411.92 -8.3,20.67 -51.84,47.08 -58.81,70.6 -22.1,74.36 49.38,100.54 58.81,141.25 12.67,54.6 -48.87,88.5 -35.31,152.99 8.96,42.39 50.3,81.67 35.31,153.01 -27.92,133.01 -80.34,309.36 -23.51,470.78 18.68,53.13 70.01,55.6 82.37,129.45 -35.82,36.35 -101.99,123.61 -105.94,188.28 33.6,36.49 76.93,218.89 70.64,258.93 -70.69,1.98 -103.62,20.84 -105.94,94.17 41.23,35.14 101.64,225.83 82.37,305.99 -12.95,54.1 -50.57,70.15 -58.81,141.23 30.65,30.64 170.49,216.27 164.75,223.61 -10.64,18.6 -40.01,42.84 -47.08,58.85l-11.8 105.92 -117.66 117.71c-22.13,44.88 -1.43,88.69 -23.57,129.45 -23.06,42.57 -90.61,54.82 -117.68,94.17l-35.3 94.15c-24.52,35.71 -238.83,171.81 -282.46,188.29 -85.03,32.15 -250.25,50.54 -329.53,35.3 -183.97,-35.3 -347.92,-8.68 -494.33,-70.62 -108.48,-45.88 -135.51,-137.36 -211.83,-211.84l-94.15 -70.62 -82.4 -223.6 -82.37 -82.41 0 -129.45c-42.04,-98.14 -148.47,-132.4 -153.01,-282.47 49.05,-26.09 113.44,-34.08 141.24,-70.6 -29.43,-18.69 -49.58,-41.72 -35.3,-70.65 20.92,-72.2 71.79,-70.14 82.37,-152.98 -112.58,-144.47 37.84,-216.51 0,-353.08 -3.39,-12.23 -49,-189.81 -47.08,-200.09 6.87,-37.01 50.96,-80.78 58.85,-117.68 13.64,-63.91 -60.82,-90.53 -47.08,-153.01 7.33,-33.29 65.98,-63.52 70.61,-105.89 1.07,-9.87 -22.16,-41.56 -23.53,-47.1l0 -188.32c-6.84,-23.48 -41.12,-50.79 -47.08,-70.61 -20.54,-68.35 46.19,-122.07 58.84,-164.78 20.87,-70.44 -26.73,-132.12 -11.76,-200.06 0.33,-1.51 0,-317.77 0,-317.77 -20.2,-63.44 -117,-155.16 -82.38,-235.38 12.95,-39.05 49.34,-62.26 58.85,-94.15 27.8,-93.37 -75.32,-118.37 -94.15,-164.78l11.74 -117.68c-15.62,-49.92 -88.82,-91.28 -70.6,-141.25 12.23,-36.24 11.38,-34.34 47.1,-47.08 102.88,-83.15 324.74,-34.06 494.28,-35.3l188.32 -11.76c25.05,8.4 55.57,37.56 70.61,58.84 42.99,55.45 75.7,176.66 82.37,258.93 -33.48,43.79 -37.76,95.69 -94.15,117.68 -24.3,18.58 -48.61,14.88 -58.84,23.53 10.91,22.54 -11.99,48.34 0,94.17 9.95,38.03 48.18,94.78 58.84,129.45 28.31,92.08 -13.15,154.15 -23.53,200.09 -9.01,39.8 21.78,74.85 23.53,129.45l-58.84 58.84 47.08 153.02c-4.03,34.28 -51.15,60.02 -35.31,117.68 22.19,80.89 98.25,100.21 105.92,211.86 -52.06,20.2 -73.62,28.82 -82.38,94.14 78.47,79.76 30.23,112.09 23.53,223.62 42.19,43.19 78.82,108.32 82.37,188.29 -33.24,22.13 -50.82,45.69 -58.84,94.17 18.83,22.79 17.61,56.42 35.31,82.37 39.74,58.35 133.97,49.17 153.01,129.48 -49.25,37.15 -106.36,87.2 -153.01,129.45 9.5,36.07 66.34,114.16 58.84,117.68 -36.24,50.66 -77.28,42.55 -82.37,129.48 -9.76,19.55 -2.79,30.43 0,70.61 46.63,28.83 120.57,87.29 129.45,152.99 -38.48,18.85 -86.65,29.98 -105.91,70.63l-11.77 11.77c26.29,10.03 52.37,28.39 70.61,47.08 35.69,-11.57 35.17,-23.15 70.64,-35.31l0 23.54c-76.98,50.6 -115.56,209.68 -117.71,329.54 80.51,72.87 104.65,110.4 129.45,247.16 52.66,26.48 314.77,134.66 353.1,117.68 63.08,-23.76 22.82,-48.18 58.85,-94.15 65.79,-83.95 148.46,-25.92 176.52,-200.06 -142.33,-194.72 56.94,-309.81 70.64,-459.01l-82.38 -82.39c22.08,-76.26 121.56,-187.1 94.15,-294.22 -31.25,-122.01 -155.33,-143.29 -164.78,-282.47 50.05,-30.1 110.46,-66.22 117.7,-141.24 -39.25,-23.82 -106.44,-65.15 -117.7,-117.68 55.31,-55.78 142.72,-153.92 164.78,-235.39 21.17,-78.24 -33.98,-133.14 -47.08,-188.28l11.75 -482.55 -35.28 -35.31c-26.43,-74.08 49.21,-109.74 23.53,-188.32 -16.62,-50.83 -53.43,-60.19 -58.86,-141.23 36.93,-24.64 45.8,-43.74 47.1,-105.94 -126.28,-128.68 -11.83,-191.07 -11.77,-317.75 -135.85,-80.48 -123.11,-203.42 -82.4,-364.87l58.86 -58.84c28.77,-15.96 69.95,-6.83 94.15,-23.53l0.02 0.02zm-4378.17 35.31c22.42,0.52 245.66,14.46 270.7,23.53l70.59 58.86c-7.43,20.62 -2.27,11.41 -11.78,23.51l-11.76 35.3c-53.07,-3.58 -61.29,-7.58 -105.94,0 -6.29,17.86 -7.95,19.95 -11.75,47.08 48.73,55.98 4.06,132.62 0,200.09l11.75 282.5c-11.91,54.46 -22.09,119.38 -23.53,200.06 -44.47,28.25 -62.65,45.91 -141.24,47.07 -22.81,-37.84 -41.06,-47.1 -47.07,-105.94 84.96,-121.87 38.53,-505.23 47.07,-647.28l-35.32 -35.33 -70.6 11.76c-20.1,-32.05 -29.84,-29.41 -35.3,-82.37 10.74,-10.97 15.67,-20.64 23.53,-35.3 33.4,-3.44 51.38,-7.83 70.62,-23.53l0.02 -0.01zm1836 82.4c55.28,2.75 88.92,18.02 129.47,35.3 14.41,26.85 19.26,26.48 23.52,70.58 -34.36,21.67 -34.18,32.25 -94.14,35.31 -22.2,-25.77 -43.82,-24.56 -94.16,-23.51 -25.93,46.13 -91.56,190.5 -47.07,258.9 25.59,39.38 92.25,40.18 117.69,82.4 8.84,12.63 7.07,11.11 11.76,35.31 -53.09,29.03 -121.69,37.86 -129.45,117.68 -39,57.87 2.98,168.23 11.75,223.62 28.53,10.64 18.73,12.57 47.08,23.53 32.36,20.46 78.12,3.09 129.46,0l23.53 23.53c-7.42,20.64 -2.27,11.45 -11.76,23.53 -14.94,48.51 -30.82,57.69 -94.17,58.85 -38.69,18.05 -186.95,-21.89 -247.15,-35.31 -9.04,-113.66 -14.77,-138.96 -58.85,-247.14 62.05,-9.8 62.01,-34.23 58.85,-105.94 -38.79,-40.51 -64.87,-91.28 -105.92,-129.45 44.94,-58.3 94.3,-78.11 117.69,-164.78 12.51,-46.3 -11.77,-211.83 -11.77,-211.83 25.72,-45.89 183.11,-34.75 223.61,-70.61l0.01 0zm4389.95 4213.39c9.24,-50.55 33.46,-40.27 47.08,-70.63 15.49,-34.56 -10.39,-42.72 0,-58.81l-70.61 -82.41c-31.8,-21.77 -135.18,-26.24 -153.01,-58.81l0 -94.17c45.33,-49.8 36.93,-72.73 141.23,-70.62 68.49,-41.97 136.86,-27.45 188.32,-82.4l-82.37 -58.85 -58.85 0c-26.68,-14.19 -166.63,-198.39 -200.06,-235.37 -54.33,1.6 -65.68,12.76 -105.95,23.5 -26.31,-34.14 -40.26,-22.17 -47.07,-82.36 35.17,-22.58 70.05,-78.55 105.94,-94.15 63.52,-27.65 130.83,11.24 176.52,-23.54 17.58,-19.12 18.24,-23.81 23.51,-58.83 -31.39,-16.98 -49.67,-23.48 -105.89,-23.53 -19.9,-13.46 -57.64,-12.57 -94.15,-11.8l0 -11.75 11.75 -0.01c31.12,-53.99 107.71,-99.43 153.01,-141.25 1.3,-128.79 -47.54,-137.87 -58.86,-235.38 41.62,-8.89 77.33,-23.58 94.15,-58.84 8.87,-12.62 7.1,-11.13 11.8,-35.3l-35.3 -11.76c-20.59,-15.1 -49.69,-19.82 -82.37,-23.53l0 -35.34c53.38,-32.91 113.77,-80.78 117.68,-164.75 -58.04,-32.44 -89.4,-65.93 -94.17,-152.99 34.53,-43.75 -6.97,-58.76 11.8,-129.49 26.48,-99.85 87.64,-174.46 94.15,-306 -60.36,-54.73 -147.95,-155.47 -176.52,-235.36l11.72 0c32.19,-105.12 135.54,-71.61 141.23,-211.86 -38.23,-28.58 -82.82,-48.23 -94.15,-105.91 43.3,-47.27 91.91,-76.4 94.15,-164.78 -81.16,-49.3 -105.01,-154 -58.81,-235.38 -69.98,-44.76 -119.34,-107.48 -176.56,-164.76 22.66,-31.85 38.73,-24.14 70.61,-47.08l58.87 -82.4c1.18,-159.02 -65.4,-239.5 -70.64,-388.38 51.67,-32.93 121.98,-84.83 164.78,-129.48 63.14,-0.49 156.16,17.04 200.06,11.8 11.14,-1.35 52.34,-18.24 82.41,-11.8 4.27,0.93 51.98,25.45 58.84,23.57 17.37,-4.74 67.88,-40.51 94.15,-47.08l200.09 -0.01c99.85,-21.66 302.42,-34.17 423.68,0 23.48,6.59 239.47,80.75 258.93,94.15l47.1 82.37 141.23 23.53c71.82,45.92 113.06,178.48 164.75,247.16l129.49 94.15c62.23,85.8 14.96,233.21 47.07,306 51.1,172.75 251.33,120.63 306.01,223.62l11.76 0.01 -11.76 11.77c-29.66,74.22 -73.75,40.01 -117.68,70.61l-164.78 176.55c-15.71,27.42 -5.1,89.38 -11.8,129.45 -37.82,9.48 -66.61,27.23 -82.37,58.86 -8.82,12.63 -7.06,11.11 -11.77,35.31 31.17,26.34 67.25,51.04 82.4,94.14l-11.77 0c-46.22,33.4 -128.64,26.76 -176.55,58.85l-223.62 223.62c-37.48,24.88 -99.19,29.51 -117.68,70.6l0 153.02c25.19,18.19 86.32,58.04 105.91,82.37 36.27,45.03 36.39,106.44 82.41,141.23 76.53,57.87 195.76,55.14 200.09,188.32 -41.83,34.7 -86.96,58.1 -94.17,129.45 48.51,47.38 177.7,338.55 200.09,411.95l-11.76 152.98c9.2,22.65 45.33,30.4 58.81,58.86 -186.39,199.9 166.93,469.85 176.58,729.69 -34.56,35.15 -41.01,75.32 -94.17,94.14 -107.24,84.72 -446,48.98 -541.38,-23.53 -43.32,-32.96 -68.24,-101.26 -105.92,-141.24 19.48,-46.8 33.55,-72.66 35.31,-141.23 -39.77,-30.34 -101.09,-90.55 -117.71,-141.22 -12.29,-37.59 4.21,-80.2 -11.74,-105.95 -38.84,-35.8 -278.03,-136.87 -341.31,-141.21 -82.37,54.5 -144.2,30.83 -141.25,176.51 29.07,49.34 -19.99,97.95 0,164.78 22.96,76.75 77.06,118.62 82.37,223.6l-105.91 105.95c20.59,24.78 23.21,17.2 23.53,35.3 -71.22,89.85 -242.67,48.87 -353.08,23.53 -111.15,-25.49 -224.2,5.18 -317.77,0l-0.01 0.01zm4319.33 -4154.59c153.35,1.33 613.39,22.3 706.15,94.17 66.66,51.63 24.39,111.37 58.86,188.28 34.06,76.13 94.53,38.56 94.15,188.32 -30.86,39.47 -46.99,109.31 -58.85,164.76 -35.71,17.81 -41.64,29.93 -94.17,35.3 -48.32,31.89 -149.25,-10.86 -200.06,-23.51 -76.6,-158.47 -280.04,-402.44 -494.33,-411.94 -12.63,23.5 -23.98,102.75 -47.08,117.7 -80.03,51.78 -173.17,-3.2 -188.32,117.68 60.44,36.18 164.26,70.23 235.39,94.17l-11.77 11.74c-39.65,40.35 -90.73,38.2 -153.01,58.85 -3.44,73.64 -22.35,102.41 -23.53,188.32 43.3,29.8 36.27,69.78 70.61,105.91l141.25 70.61 0 23.57c-53.34,29.03 -150.15,32.85 -164.78,105.91 80.39,92.41 -87.43,216.9 -58.81,294.24 13.89,84.25 63.88,78.44 70.61,176.52 -24.48,28.28 -40.25,60.14 -47.08,105.95 9.45,12.01 4.16,3.22 11.74,23.53 241.27,143.48 247.16,-65.49 447.25,-82.38 117.85,169.94 250.91,309.95 117.71,564.93 -27.51,52.62 -23.13,95.77 -82.4,117.68 -37.57,23.45 -120.72,9.56 -153,-11.77 -133.14,-87.83 -82.93,-198.55 -329.57,-188.28 -19.56,25.91 -33.35,23.82 -47.08,58.81 -10.33,15.24 -10.5,29.05 -11.76,58.86 48.42,36.14 88.36,84.01 141.24,117.71 -23.95,55.4 -62.8,75.82 -82.4,129.45l11.82 0c27.56,38.39 55.97,20.48 70.61,47.08 -62.26,39.44 -144.17,121.13 -153.02,211.82 -93.67,142.13 75.66,262.25 94.15,341.34 -25.91,20.06 -29.27,28.47 -35.27,70.6 41.56,26.26 196.44,145.08 211.83,188.29 -59.72,2.35 -164.45,14.74 -223.62,35.33 -23.61,52.26 -43.07,137.86 -58.84,200.06 62.48,35.12 114.32,55.35 117.71,153.01 -35.91,42.94 -6.37,77.94 47.08,94.15 65.59,46.03 226.6,42.59 317.76,23.54 70.5,-129.87 66.95,-67.89 164.78,-141.23 -17.39,-28.58 -3.44,-59.31 0,-105.93 97.04,-67.25 191.68,-138.31 270.67,-223.6 60.57,0.3 84.31,12.52 129.48,23.54 22.3,31.91 54.35,77.43 82.37,105.91 -40.56,195.98 25.47,148.77 58.85,282.47 14.46,57.98 -39.72,90.17 -47.08,129.48 -6.62,35.19 20.58,42.36 23.53,58.81 12.95,72.25 -68.99,159.06 -117.68,176.55 -80.06,73.51 -195.37,30.81 -329.53,58.84 -201.16,42.04 -465.55,17.18 -647.31,-11.76l-164.78 23.53c-64.24,-14.5 -155.27,-53.52 -223.62,-70.62 -169.83,-42.44 -388.44,51.86 -423.68,-117.68 18.49,-22.24 22.25,-24.3 11.77,-47.1 -28.75,-82.35 -163.54,-71.35 -211.86,-141.21l35.31 -11.77c43.41,-24.89 136.72,7.16 164.78,-35.31 -26.24,-34.94 -34.59,-81.31 -35.3,-141.22 43.85,-37.59 121.52,-51.51 152.99,-94.18 -34.83,-20.37 -60.8,-33.78 -70.61,-82.38 11.6,-12.22 43.62,-55.53 47.08,-70.6 11.66,-51.04 -37.68,-76.81 -23.53,-141.24 12.68,-57.67 35.25,-104.35 35.31,-188.29 -33.55,-15.89 -87.81,-23.82 -105.92,-58.86 52.66,-40.04 173.93,-242.86 176.52,-329.54 -41.04,-37.43 -67.85,-75.71 -70.6,-153 21.79,-21.14 43.98,-66.19 35.3,-82.4 -42.91,-112.86 -221.53,-70.61 -247.16,-188.28 29.38,-17.47 165.88,-74.03 176.55,-94.17 9.45,-13.87 9.09,-19.76 11.77,-47.08 -48.7,-20.37 -118.23,-37.23 -164.76,-58.84l-11.76 -82.38c54.65,-30.21 87.36,-38.17 129.45,-70.6 -16.59,-55.76 -47.77,-63.64 -58.87,-129.49 26.76,-17.28 35.44,-24.75 47.08,-58.84 -45.28,-10.39 -78.63,-29.18 -94.15,-70.61 51.55,-26.48 142.76,-33.93 164.78,-94.15 52.92,-84.45 -29.9,-155.49 -47.08,-200.09 -20.15,-52.31 16.04,-105.94 23.53,-141.24 -38.69,-20.34 -71.65,-30.05 -82.37,-82.38 62.76,-59.64 151.25,-155.27 152.99,-270.69 -36.46,-39.47 -34.42,-111.71 -70.61,-153 -14.25,-16.29 -32.99,-14.86 -47.1,-35.3 65.43,-30.92 151.45,-91.91 153.01,-188.32 105.09,-148.54 -107.92,-291.5 -176.52,-353.08l0 -23.53c42.77,-28.05 90.12,-76.34 141.23,-94.14 77.41,-27.03 175.42,9.36 247.16,0 164.61,-21.52 412.55,-45.97 588.46,-11.77l0 -23.57 -0.02 0.02zm-3601.4 364.87c-31.31,48.34 -85.47,73.42 -105.91,129.45 24.37,15.1 27.09,24.45 58.84,35.33 16.29,9.21 207.45,23.3 258.91,23.51 11.32,-20.78 14.82,-19.79 23.57,-47.08l11.76 0.01 -11.76 -11.76c-39.94,-57.43 -144.81,-125.35 -235.39,-129.45l-0.01 -0.01zm23.53 317.74c-9.72,85.33 -107.98,206.27 -11.74,247.16 48.01,33.85 195.34,30.4 235.36,0 36.79,-11.33 45.67,-26.64 70.61,-47.07l0 -23.51c-38.06,-13.29 -61.21,-40.1 -70.61,-82.41 32.22,-20.11 57.1,-42.55 70.61,-82.37l11.77 0 -11.76 -11.8c-17.2,-29.65 -14.78,-21.49 -58.85,-23.5 -60.38,48.26 -143.88,27.01 -235.38,23.5l-0.01 0zm-6202.42 3825.03c0.9,29.82 1.43,43.74 11.8,58.88 0.45,1.45 129.45,200.06 129.45,200.06l58.85 0c66.62,-84.62 98.4,-14.71 164.77,-58.85 39.13,-26.04 38.71,-104.33 82.37,-129.48 38.02,-21.9 85.73,-9.15 117.69,-35.3 35.25,-28.83 0.72,-72.51 23.53,-117.68 8.15,-16.16 32.46,-12.28 47.07,-23.54 88.38,-68.1 123.14,-150.7 282.47,-153.02 49.1,47.25 127.02,110.83 153,176.57l-11.75 164.74c12.69,40.4 87.67,102.86 58.83,153.01 -27.06,85.03 -172.41,106.49 -223.6,176.55 -57.87,79.16 -89.99,173.14 -153.01,247.13 -16.49,19.38 -48.41,20.62 -70.62,35.34 -127.19,84.22 -144.68,90.01 -317.76,141.22 -48.87,14.47 -119,62.32 -188.32,47.07 -113.01,-24.85 -192.72,-94.42 -282.43,-141.21 -52.88,-27.59 -192.67,-44.66 -223.63,-94.15 23.4,-25.42 24.34,-53.88 23.53,-105.95 -71.76,-47.14 -101.86,-133.29 -164.78,-188.32l-82.37 -47.08 -11.77 -105.91c-10.28,-20.76 -51.96,-46.57 -58.85,-70.62l11.76 -82.4c-31.45,-73.73 -102.59,-5.27 -105.92,-152.99 77.55,-106.07 -76.47,-124.25 -105.92,-188.32l0 -129.48c-26.52,-113.99 -61.64,-144.75 -35.29,-258.91 -31.61,-21.99 -93.06,-67.77 -105.94,-105.91l11.76 -141.24c-19.05,-34.15 -56.14,-15.33 -70.59,-70.62 94.71,-52.48 106.15,-71.47 176.52,-141.25 -8.53,-119.3 -95.02,-190.77 -129.45,-282.43l105.9 -105.95 0 -23.53c-47.87,-24.85 -79.48,-30.85 -82.39,-105.92 150.25,-137.05 102.78,-192.76 70.62,-376.64 144.13,-91.17 35.6,-196.69 11.76,-317.77 55.32,-58.81 91.81,-153.15 105.93,-223.59 -50.2,-15.66 -74.64,-47.08 -82.39,-105.92 42.17,-44.69 46.64,-111.95 82.39,-164.78l176.52 -164.76 11.77 -82.4c11.19,-25.55 50.42,-54.6 58.85,-82.38l-11.76 -141.22c56.03,-18 203.51,-61.65 258.93,-94.2 33.58,-19.68 68.37,-67.57 105.92,-82.37l211.84 -11.77c51.11,-12.98 129.85,-68.49 188.32,-58.81 92.51,15.26 178.68,79.27 258.93,105.91 96.9,32.19 236.34,36.41 353.06,82.37 29.83,48.37 77.63,105.18 94.16,164.78l0 164.76c24.3,60.35 73.86,82.7 82.39,176.55 -73,79.07 -84.94,222.03 -176.55,282.43 -24.34,19.62 -48.91,22.49 -94.15,23.57 -30.97,-41.48 -86.96,-64.82 -117.7,-105.94 -41.08,-54.93 -69.32,-106.69 -117.68,-152.99l-70.59 -47.08c-62.55,-93.04 -29.88,-263.84 -141.25,-306.01 -14.2,-11.29 -288.23,-26.6 -294.25,-23.53 -20.84,22.57 -22.29,36.89 -23.53,82.37 36.71,23.29 45.2,33.21 47.08,94.15 -121.48,82.15 -4.41,102.66 -35.3,200.09 -8.22,25.91 -48.87,28.5 -58.83,47.08 -18.29,34.06 -34.12,132.04 -35.32,176.55 31.94,28.52 53.26,48.7 58.84,105.91 -54.16,48.76 -124.39,103.3 -129.46,200.09 125.97,98.61 -3.85,127.88 23.54,235.36 20.18,79.24 187.2,330.51 164.78,388.41 -34.77,89.68 -102.67,64.32 -105.94,223.61 37.82,25.88 100.8,71.19 117.69,117.69l-11.75 0.02c-47.98,42.85 -93.35,34.55 -105.94,117.69l35.31 35.28 82.39 -23.53 0 23.53c-9.46,12.01 -4.18,3.23 -11.76,23.53 -46.85,16.09 -82.33,14.19 -94.17,70.65 26.68,28.22 105.18,153.17 117.69,188.29 -38.58,30.86 -10.36,45.3 -35.32,94.15 -34.37,67.32 -90.27,-4.36 -94.14,129.46 25.81,34.67 19.57,67.85 35.31,117.69 34.12,108 83.78,128.15 176.54,176.55 -7.41,20.64 -2.26,11.43 -11.76,23.53 -20.58,51.56 -112.33,115.56 -153,153.01 29.65,83.56 114.05,106.11 141.24,200.06l-23.56 0.01c-25.19,-14.36 -32.59,-4.58 -70.62,0l0.01 -0.01zm6214.17 -3471.93c-18.02,28.99 -26.95,26.79 -35.3,70.61 57.05,38.8 88.36,55.59 164.76,23.53 11.74,-26.21 17.96,-33.48 23.57,-70.6l-23.56 0c-28.19,-25.88 -72.1,-25.19 -129.45,-23.53l-0.01 0zm-82.37 235.36c-36.71,52.17 -77.52,51.84 -82.37,141.25 66.26,68.1 69.67,130.66 211.83,129.48 48.76,-41.67 89.49,-26.68 176.55,-23.57 12.55,-33.84 20.12,-31.33 23.53,-82.37 -88.35,-56.36 -213.01,-145.41 -329.53,-164.78l-0.01 -0.01zm141.25 353.1l-70.64 58.85 0 11.8c48.48,16.45 54.37,34.04 129.48,35.28 34.97,-24.51 62.35,-17.01 82.37,-58.85l-47.07 -47.08 -94.14 0zm-117.72 753.23c-18.68,34.73 -24.42,67.34 -23.53,129.49 -35.77,31.85 -18.71,47.43 0,82.37l-35.3 35.3 11.76 11.77c18.58,60.49 123.52,105.48 152.99,82.38 44.93,-20.77 65.38,-30.74 70.64,-94.15 33.33,-54.07 -42.85,-146.35 -58.84,-211.83 -40.08,-19.08 -56.33,-32.47 -117.71,-35.34l-0.01 0zm23.54 423.71c-16.06,15.5 -37.4,24.98 -58.84,35.32l11.76 35.3c75.87,24.14 134.86,55.32 235.39,35.3l11.76 -70.6 -35.33 -11.8c-32.49,-29.48 -100.38,-25.55 -164.76,-23.5l0.01 -0.02zm-70.61 188.29c-24.39,27.92 -29.68,17.3 -35.3,70.63 19.29,8.21 37.73,8.08 47.08,23.54l-23.53 23.53 0 141.24c3.64,14.24 19.01,36.33 23.53,58.82 55.36,24.7 65.84,53.71 141.22,58.83 51.48,-43.12 111.51,-3.14 164.78,-35.3 11.3,-16.68 11.49,-38.54 11.76,-70.62 -44.48,-49.8 -54.68,-142.21 -70.6,-188.32 -83.34,-30.82 -182.04,-49.66 -258.93,-82.37z"/>
   </g>
  </g>
 </g>
</svg>
