<?xml version="1.0" encoding="UTF-8" standalone="no"?>
<svg xmlns:rdf="http://www.w3.org/1999/02/22-rdf-syntax-ns#" xmlns="http://www.w3.org/2000/svg" height="260.623" width="541.908" version="1.1" xmlns:cc="http://creativecommons.org/ns#" xmlns:dc="http://purl.org/dc/elements/1.1/">
 <g transform="translate(-153.721 -456.253)">
  <path d="m208.431 460.255c-0.005 6.6275-0.13338 9.13 0 14.9462 0.809 0.28625 0.90375 0.36125 2.13525 0.5325 0.82362-0.40875 1.82563-0.1 3.73625 0 0.56112-1.55625 0.97075-1.25125 1.60162-2.6675 1.73051-2.45875-0.15725-6.45625-1.06737-8.0075 1.497 0.21875 1.517 0.65375 2.66837 0 0.40138-0.5725 0.32088-0.505 0.53425-1.60125l-0.53425-0.53375c-1.24262 0.15625-1.32225 0.24125-2.13525 0.53375v-1.60125l6.40575-0.53375c4.45763 7.265 4.03325 16.7362 1.60163 26.69-0.87012 3.56125 1.17337 9.075-0.53425 11.7438-2.32225 2.50375-4.47062 2.51125-8.5405 2.135-0.53613-5.0375 1.95312-8.86625 2.13475-14.9462-1.11512-0.59875-0.9775-0.76625-2.66788-1.0675-0.38237-0.0362-3.6055 0.7-4.80425 1.60125-2.11575 2.91875-1.51562 12.8262-1.06837 14.4125h-2.66837l-4.80476-1.60125c-1.793-4.07 1.42438-8.84 0-14.9462-0.291-1.2475-1.51512-2.70625-1.06687-4.80375 0.43162-2.02625 1.64937-4.7325 2.13525-6.40625 1.67337-5.76875-2.51463-9.5425 2.13475-12.8112 1.1885-0.95625 2.561-1.06625 4.80425-1.0675zm160.14 0c5.7525-0.0513 9.96125 0.81375 14.9462 1.0675 1.475 2.3625 2.96625 4.22375 3.73625 7.47375-3.56125 2.70625-2.10375 3.51125-3.73625 8.00625-0.9625 2.64875-3.35875 2.4525-3.7375 6.40625 1.295 0.86375 3.3 2.6925 3.7375 4.27 0 0-1.43875 18.2788-1.6025 18.6825-0.37625 0.9375-2.35125 2.135-2.6675 3.2025-1.0025 3.3725 2.24 4.56 2.6675 6.40625 0.575 2.47625-2.21625 4.01375-1.60125 6.93875 0.40625 1.9225 2.28125 3.70375 1.60125 6.94-1.26625 6.0325-3.64375 14.0312-1.06625 21.3525 0.8475 2.41 3.175 2.52125 3.73625 5.87125-1.625 1.64875-4.62625 5.60625-4.805 8.54 1.52375 1.655 3.48875 9.9275 3.20375 11.7438-3.20625 0.09-4.7 0.945-4.805 4.27125 1.87 1.59375 4.61 10.2424 3.73625 13.8786-0.5875 2.45363-2.29375 3.18113-2.6675 6.40525 1.39 1.38976 7.7325 9.80863 7.4725 10.1421-0.4825 0.84375-1.815 1.94288-2.135 2.669l-0.535 4.80362-5.33625 5.33888c-1.00375 2.03525-0.065 4.0225-1.06875 5.87112-1.04625 1.93113-4.11 2.48638-5.3375 4.2715l-1.60125 4.27001c-1.1125 1.61962-10.8325 7.79249-12.8112 8.53999-3.85625 1.4585-11.35 2.29251-14.9462 1.60113-8.34375-1.60113-15.78-0.3935-22.42-3.20262-4.92-2.08113-6.14625-6.23001-9.6075-9.60838l-4.27-3.20263-3.7375-10.1411-3.73625-3.73788v-5.871c-1.90625-4.45124-6.73375-6.00487-6.94-12.8116 2.225-1.1835 5.145-1.54587 6.40625-3.20212-1.335-0.84763-2.24875-1.89251-1.60125-3.20413 0.94875-3.27488 3.25625-3.18113 3.73625-6.9385-5.10625-6.5525 1.71625-9.82 0-16.0138-0.15375-0.555-2.2225-8.60875-2.135-9.075 0.31125-1.67875 2.31125-3.66375 2.66875-5.3375 0.61875-2.89875-2.75875-4.10625-2.135-6.94 0.3325-1.51 2.9925-2.88125 3.2025-4.8025 0.0487-0.4475-1.005-1.885-1.0675-2.13625v-8.54125c-0.31-1.065-1.865-2.30375-2.135-3.2025-0.93125-3.1 2.095-5.53625 2.66875-7.47375 0.94625-3.195-1.2125-5.9925-0.53375-9.07375 0.015-0.0688 0-14.4125 0-14.4125-0.91625-2.8775-5.30625-7.0375-3.73625-10.6762 0.5875-1.77125 2.2375-2.82375 2.66875-4.27 1.26125-4.235-3.41625-5.36875-4.27-7.47375l0.5325-5.3375c-0.70875-2.26375-4.02875-4.14-3.2025-6.40625 0.555-1.64375 0.51625-1.5575 2.13625-2.135 4.66625-3.77125 14.7288-1.545 22.4188-1.60125l8.54125-0.53375c1.13625 0.38125 2.52 1.70375 3.2025 2.66875 1.95 2.515 3.43375 8.0125 3.73625 11.7438-1.51875 1.98625-1.7125 4.34-4.27 5.3375-1.1025 0.8425-2.205 0.675-2.66875 1.0675 0.495 1.0225-0.54375 2.1925 0 4.27125 0.45125 1.725 2.185 4.29875 2.66875 5.87125 1.28375 4.17625-0.59625 6.99125-1.0675 9.075-0.40875 1.805 0.9875 3.395 1.0675 5.87125l-2.66875 2.66875 2.135 6.94c-0.1825 1.555-2.32 2.7225-1.60125 5.3375 1.00625 3.66875 4.45625 4.545 4.80375 9.60875-2.36125 0.91625-3.33875 1.3075-3.73625 4.27 3.55875 3.6175 1.37125 5.08375 1.0675 10.1425 1.91375 1.95875 3.575 4.9125 3.73625 8.54-1.5075 1.00375-2.305 2.0725-2.66875 4.27125 0.85375 1.03375 0.79875 2.55875 1.60125 3.73625 1.8025 2.64625 6.07625 2.23 6.94 5.8725-2.23375 1.685-4.82375 3.955-6.94 5.87125 0.43125 1.63625 3.00875 5.1775 2.66875 5.3375-1.64375 2.2975-3.505 1.93-3.73625 5.8725-0.4425 0.88625-0.12625 1.38 0 3.20238 2.115 1.30762 5.46875 3.959 5.87125 6.93887-1.745 0.855-3.93 1.35988-4.80375 3.20363l-0.53375 0.53375c1.1925 0.45512 2.375 1.28762 3.2025 2.13525 1.61875-0.52488 1.595-1.05025 3.20375-1.60163v1.06788c-3.49125 2.295-5.24125 9.50987-5.33875 14.9464 3.65125 3.30463 4.74625 5.00725 5.87125 11.2099 2.38875 1.20125 14.2762 6.1075 16.015 5.3375 2.86125-1.07763 1.035-2.18513 2.66875-4.27013 2.98375-3.8075 6.73375-1.17525 8.00625-9.07362-6.455-8.83163 2.5825-14.0514 3.20375-20.8189l-3.73625-3.73637c1.00125-3.4585 5.51375-8.48613 4.27-13.3449-1.4175-5.53375-7.045-6.49875-7.47375-12.8112 2.27-1.365 5.01-3.00375 5.33875-6.40625-1.78-1.08-4.8275-2.955-5.33875-5.3375 2.50875-2.53 6.47375-6.98125 7.47375-10.6762 0.96-3.54875-1.54125-6.03875-2.135-8.54l0.5325-21.8862-1.6-1.60125c-1.19875-3.36 2.23125-4.9775 1.0675-8.54125-0.75375-2.305-2.42375-2.73-2.67-6.405 1.675-1.1175 2.0775-1.98375 2.13625-4.805-5.7275-5.83625-0.53625-8.66625-0.53375-14.4112-6.16125-3.65-5.58375-9.22625-3.7375-16.5488l2.67-2.66875c1.305-0.72375 3.1725-0.31 4.27-1.0675zm-198.573 1.60125c1.01665 0.0238 11.1416 0.65625 12.2779 1.0675l3.20212 2.67c-0.337 0.935-0.10312 0.5175-0.53425 1.06625l-0.53312 1.60125c-2.40725-0.1625-2.78038-0.34375-4.80475 0-0.28563 0.81-0.36038 0.905-0.53312 2.135 2.21037 2.53875 0.184 6.015 0 9.075l0.53312 12.8125c-0.54 2.47-1.00187 5.415-1.06688 9.07375-2.01712 1.28125-2.84175 2.0825-6.40625 2.135-1.03462-1.71625-1.86225-2.13625-2.13477-4.805 3.85352-5.5275 1.74752-22.915 2.13477-29.3575l-1.60162-1.6025-3.20209 0.53375c-0.91162-1.45375-1.35351-1.33375-1.60156-3.73625 0.4873-0.4975 0.71045-0.93625 1.06737-1.60125 1.51465-0.15625 2.33009-0.355 3.20313-1.0675zm83.2725 3.7375c2.50725 0.125 4.03263 0.8175 5.87201 1.60125 0.65387 1.2175 0.87399 1.20125 1.06687 3.20125-1.55813 0.9825-1.55025 1.4625-4.27 1.60125-1.00638-1.16875-1.98725-1.11375-4.2705-1.06625-1.17625 2.0925-4.15238 8.64-2.13475 11.7425 1.16062 1.78625 4.1845 1.8225 5.33787 3.7375 0.40088 0.5725 0.32076 0.50375 0.53375 1.60125-2.40825 1.31625-5.51912 1.7175-5.87162 5.3375-1.769 2.625 0.13525 7.63 0.53325 10.1425 1.29388 0.4825 0.84913 0.57 2.13562 1.0675 1.46738 0.9275 3.543 0.14 5.87163 0l1.06788 1.0675c-0.33688 0.93625-0.10301 0.51875-0.53363 1.0675-0.67775 2.2-1.398 2.61625-4.271 2.66875-1.75488 0.81875-8.479-0.9925-11.2095-1.60125-0.41013-5.155-0.67-6.3025-2.6695-11.2088 2.8145-0.445 2.8125-1.5525 2.6695-4.805-1.75925-1.8375-2.94238-4.14-4.80425-5.87125 2.03812-2.64375 4.27687-3.5425 5.33787-7.47375 0.56738-2.1-0.53362-9.6075-0.53362-9.6075 1.1665-2.08125 8.30462-1.57625 10.1421-3.2025zm199.107 191.099c0.41875-2.2925 1.5175-1.82612 2.135-3.20362 0.7025-1.56737-0.47125-1.9375 0-2.6675l-3.2025-3.73775c-1.4425-0.98725-6.13125-1.19-6.94-2.6675v-4.271c2.05625-2.25875 1.675-3.29875 6.405-3.20263 3.10625-1.90374 6.2075-1.24512 8.54125-3.73725l-3.73625-2.669h-2.66875c-1.21-0.6435-7.5575-8.99749-9.07375-10.6748-2.46375 0.0723-2.97875 0.57863-4.805 1.06588-1.19375-1.54837-1.82625-1.00587-2.135-3.73587 1.595-1.02388 3.1775-3.5625 4.805-4.27 2.88125-1.25388 5.93375 0.50974 8.00625-1.06788 0.7975-0.86713 0.8275-1.07963 1.06625-2.6685-1.42375-0.77-2.2525-1.06487-4.8025-1.06738-0.9025-0.61024-2.61375-0.57024-4.27-0.53512v-0.53275h0.5325c1.41125-2.44862 4.885-4.50975 6.94-6.40625 0.0587-5.84125-2.15625-6.25337-2.67-10.6762 1.8875-0.40325 3.5075-1.06975 4.27-2.6685 0.4025-0.5725 0.3225-0.505 0.535-1.60125l-1.60125-0.53375c-0.93375-0.685-2.25375-0.89875-3.73625-1.0675v-1.6025c2.42125-1.4925 5.16-3.66375 5.3375-7.4725-2.6325-1.47125-4.055-2.99-4.27125-6.93875 1.56625-1.98375-0.31625-2.665 0.535-5.8725 1.20125-4.52875 3.975-7.9125 4.27-13.8788-2.7375-2.4825-6.71-7.05125-8.00625-10.675h0.5325c1.46-4.7675 6.1475-3.2475 6.405-9.60875-1.73375-1.29625-3.75625-2.1875-4.27-4.80375 1.96375-2.14375 4.16875-3.465 4.27-7.47375-3.68125-2.23625-4.7625-6.985-2.6675-10.6762-3.17375-2.03-5.4125-4.875-8.0075-7.4725 1.0275-1.445 1.75625-1.095 3.2025-2.135l2.67-3.7375c0.0538-7.2125-2.96625-10.8625-3.20375-17.615 2.34375-1.49375 5.5325-3.8475 7.47375-5.8725 2.86375-0.0225 7.0825 0.7725 9.07375 0.535 0.505-0.0613 2.37375-0.8275 3.7375-0.535 0.19375 0.0425 2.3575 1.15375 2.66875 1.06875 0.7875-0.215 3.07875-1.8375 4.27-2.135h9.075c4.52875-0.9825 13.7162-1.55 19.2162 0 1.065 0.29875 10.8612 3.6625 11.7438 4.27l2.13625 3.73625 6.405 1.0675c3.2575 2.0825 5.1275 8.095 7.4725 11.21l5.8725 4.27c2.8225 3.89125 0.67875 10.5775 2.135 13.8788 2.3175 7.835 11.3988 5.47125 13.8788 10.1425h0.53375l-0.53375 0.53375c-1.345 3.36625-3.345 1.815-5.3375 3.2025l-7.47375 8.0075c-0.7125 1.24375-0.23125 4.05375-0.535 5.87125-1.715 0.43-3.02125 1.235-3.73625 2.67-0.4 0.5725-0.32 0.50375-0.53375 1.60125 1.41375 1.195 3.05 2.315 3.7375 4.27h-0.53375c-2.09625 1.515-5.835 1.21375-8.0075 2.66875l-10.1425 10.1425c-1.7 1.12875-4.49875 1.33875-5.3375 3.2025v6.94c1.1425 0.825 3.915 2.6325 4.80375 3.73625 1.645 2.0425 1.65 4.8275 3.7375 6.405 3.47125 2.625 8.87875 2.50125 9.075 8.54125-1.8975 1.57375-3.94375 2.635-4.27125 5.87113 2.2 2.14887 8.06 15.355 9.075 18.684l-0.53375 6.93851c0.4175 1.02737 2.05625 1.37887 2.6675 2.67-8.45375 9.06637 7.57125 21.31 8.00875 33.0951-1.5675 1.59475-1.86 3.416-4.27125 4.27-4.86375 3.84238-20.2288 2.22125-24.555-1.06738-1.965-1.49512-3.095-4.59274-4.80375-6.40625 0.88375-2.12249 1.52125-3.29537 1.60125-6.40524-1.80375-1.37601-4.585-4.10738-5.33875-6.40475-0.5575-1.70513 0.19125-3.63775-0.5325-4.80513-1.76125-1.62362-12.61-6.20762-15.48-6.40487-3.73625 2.47225-6.54 1.3985-6.40625 8.00587 1.31875 2.23775-0.90625 4.44288 0 7.47413 1.04125 3.481 3.495 5.37987 3.73625 10.1411l-4.80375 4.80513c0.93375 1.12362 1.0525 0.77987 1.0675 1.60112-3.23 4.07525-11.0062 2.21625-16.0138 1.06738-5.04125-1.15625-10.1688 0.23487-14.4125 0zm195.904-188.432c6.955 0.06 27.82 1.01125 32.0275 4.27125 3.02375 2.34125 1.10625 5.05125 2.67 8.54 1.545 3.4525 4.2875 1.74875 4.27 8.54125-1.4 1.79-2.13125 4.9575-2.66875 7.4725-1.62 0.8075-1.88875 1.3575-4.27125 1.60125-2.19125 1.44625-6.76875-0.4925-9.07375-1.06625-3.47375-7.1875-12.7012-18.2525-22.42-18.6838-0.5725 1.06625-1.0875 4.66-2.135 5.33875-3.63 2.34875-7.85375-0.145-8.54125 5.3375 2.74125 1.64125 7.45 3.185 10.6762 4.27125l-0.53375 0.5325c-1.79875 1.83-4.115 1.7325-6.94 2.66875-0.15625 3.34-1.01375 4.645-1.0675 8.54125 1.96375 1.35125 1.645 3.165 3.2025 4.80375l6.40625 3.2025v1.06875c-2.41875 1.31625-6.81 1.49-7.47375 4.80375 3.64625 4.19125-3.965 9.8375-2.6675 13.345 0.63 3.82125 2.8975 3.5575 3.2025 8.00625-1.11 1.2825-1.825 2.7275-2.135 4.805 0.42875 0.545 0.18875 0.14625 0.5325 1.0675 10.9425 6.5075 11.21-2.97 20.285-3.73625 5.345 7.7075 11.38 14.0575 5.33875 25.6225-1.2475 2.38625-1.04875 4.34375-3.7375 5.3375-1.70375 1.06375-5.475 0.43375-6.93875-0.53375-6.03875-3.98375-3.76125-9.005-14.9475-8.54-0.8875 1.175-1.5125 1.08-2.135 2.6675-0.46875 0.69125-0.47625 1.3175-0.53375 2.67 2.19625 1.63875 4.0075 3.81 6.40625 5.33875-1.08625 2.5125-2.84875 3.43875-3.7375 5.87125h0.535c1.25 1.74125 2.53875 0.92875 3.2025 2.135-2.82375 1.78875-6.53875 5.49362-6.94 9.60737-4.24875 6.44638 3.43125 11.8941 4.27 15.4815-1.175 0.90963-1.3275 1.291-1.6 3.20213 1.885 1.19137 8.91 6.58012 9.6075 8.54-2.70875 0.1065-7.45875 0.669-10.1425 1.60262-1.07125 2.37013-1.95375 6.25238-2.66875 9.07375 2.83375 1.59275 5.185 2.51025 5.33875 6.93988-1.62875 1.94775-0.28875 3.53512 2.135 4.27 2.975 2.08787 10.2775 1.93162 14.4125 1.06787 3.1975-5.89012 3.03625-3.07912 7.47375-6.40525-0.78875-1.29637-0.15625-2.68987 0-4.80462 4.40125-3.05038 8.69375-6.273 12.2762-10.1416 2.7475 0.0136 3.82375 0.56788 5.8725 1.06788 1.01125 1.44725 2.465 3.51212 3.73625 4.80362-1.84 8.88875 1.155 6.74713 2.66875 12.8111 0.65625 2.62987-1.80125 4.08975-2.135 5.8725-0.3 1.59625 0.93375 1.92137 1.0675 2.6675 0.5875 3.27737-3.12875 7.21387-5.3375 8.00737-3.63125 3.33388-8.86125 1.39738-14.9462 2.66888-9.12375 1.90625-21.115 0.77887-29.3588-0.53363l-7.47375 1.06738c-2.91375-0.65775-7.0425-2.42725-10.1425-3.20263-7.7025-1.92487-17.6175 2.35251-19.2162-5.3375 0.83875-1.00875 1.00875-1.1025 0.53375-2.13612-1.30375-3.73488-7.4175-3.23637-9.60875-6.40488l1.60125-0.53362c1.96875-1.129 6.20125 0.32462 7.47375-1.60163-1.19-1.58487-1.56875-3.6875-1.60125-6.40475 1.98875-1.70512 5.51125-2.33637 6.93875-4.2715-1.58-0.92387-2.7575-1.53225-3.2025-3.73637 0.52625-0.55463 1.97875-2.5185 2.135-3.20212 0.52875-2.31488-1.70875-3.48388-1.0675-6.40625 0.575-2.61526 1.59875-4.73288 1.60125-8.54001-1.52125-0.72125-3.9825-1.08012-4.80375-2.66987 2.38875-1.8155 7.88875-11.0152 8.00625-14.9464-1.86125-1.69775-3.0775-3.43387-3.2025-6.93887 0.98875-0.95875 1.995-3.0025 1.60125-3.7375-1.94625-5.11875-10.0475-3.2025-11.21-8.54 1.3325-0.7925 7.52375-3.3575 8.0075-4.27125 0.42875-0.62875 0.4125-0.89625 0.53375-2.135-2.20875-0.92375-5.3625-1.68875-7.4725-2.66875l-0.53375-3.73625c2.47875-1.37 3.9625-1.73125 5.87125-3.2025-0.7525-2.52875-2.16625-2.88625-2.67-5.8725 1.21375-0.78375 1.6075-1.1225 2.135-2.66875-2.05375-0.47125-3.56625-1.32375-4.27-3.2025 2.3375-1.20125 6.475-1.53875 7.47375-4.27 2.4-3.83-1.35625-7.0525-2.135-9.075-0.91375-2.3725 0.7275-4.805 1.0675-6.40625-1.755-0.9225-3.25-1.3625-3.73625-3.73625 2.84625-2.705 6.86-7.0425 6.93875-12.2775-1.65375-1.79-1.56125-5.06625-3.2025-6.93875-0.64625-0.73875-1.49625-0.67375-2.13625-1.60125 2.9675-1.4025 6.86875-4.16875 6.94-8.54125 4.76625-6.7375-4.895-13.2212-8.00625-16.0138v-1.0675c1.94-1.2725 4.0875-3.4625 6.405-4.27 3.51125-1.22625 7.95625 0.425 11.21 0 7.46625-0.97625 18.7112-2.085 26.69-0.53375v-1.06875zm-163.342 16.5488c-1.42 2.1925-3.87625 3.33-4.80375 5.87125 1.105 0.685 1.22875 1.10875 2.66875 1.6025 0.73875 0.4175 9.40875 1.05625 11.7425 1.06625 0.51375-0.9425 0.6725-0.8975 1.06875-2.135h0.53375l-0.53375-0.53375c-1.81125-2.605-6.5675-5.685-10.6762-5.87125zm1.0675 14.4112c-0.44125 3.87-4.8975 9.355-0.5325 11.21 2.1775 1.535 8.86 1.37875 10.675 0 1.66875-0.51375 2.07125-1.20875 3.2025-2.135v-1.06625c-1.72625-0.6025-2.77625-1.81875-3.2025-3.7375 1.46125-0.9125 2.59-1.93 3.2025-3.73625h0.53375l-0.53375-0.535c-0.78-1.345-0.67-0.975-2.66875-1.06625-2.73875 2.18875-6.52625 1.225-10.6762 1.06625zm-281.312 173.485c0.0405 1.35263 0.065 1.984 0.53475 2.6705 0.0205 0.0659 5.8715 9.07375 5.8715 9.07375h2.66949c3.02188-3.838 4.46288-0.6675 7.47313-2.669 1.77438-1.18112 1.75587-4.7315 3.73625-5.8725 1.72412-0.99275 3.88825-0.41513 5.338-1.60112 1.59862-1.30763 0.0326-3.28913 1.06737-5.33738 0.36963-0.733 1.47213-0.55662 2.13475-1.06787 4.00875-3.08838 5.58538-6.83501 12.8115-6.94001 2.227 2.14263 5.76075 5.02638 6.9395 8.00788l-0.53325 7.47212c0.57563 1.8325 3.9765 4.66501 2.6685 6.94001-1.22712 3.85637-7.81987 4.82999-10.1416 8.00775-2.6245 3.58987-4.082 7.85249-6.94 11.2085-0.7475 0.8789-2.19575 0.93505-3.20313 1.60254-5.769 3.81982-6.562 4.08251-14.4121 6.40527-2.21675 0.65625-5.39688 2.82617-8.5415 2.13476-5.1255-1.12743-8.74063-4.28271-12.81-6.40479-2.3985-1.25146-8.73825-2.02538-10.1426-4.27002 1.06113-1.15282 1.1045-2.4439 1.06738-4.80515-3.25438-2.13775-4.61963-6.045-7.47313-8.541l-3.73625-2.13525-0.53375-4.80375c-0.46625-0.94137-2.35687-2.11225-2.66937-3.20262l0.53362-3.73738c-1.42625-3.34375-4.65337-0.23875-4.80425-6.93887 3.51713-4.81113-3.46821-5.63476-4.80415-8.54101v-5.87262c-1.20312-5.16988-2.79588-6.56488-1.60057-11.7426-1.4336-0.99763-4.22071-3.07375-4.80469-4.80376l0.5332-6.40625c-0.86377-1.54887-2.54639-0.69487-3.20166-3.20262 4.29541-2.37987 4.81445-3.24125 8.00635-6.40625-0.38721-5.41112-4.30958-8.65237-5.8711-12.8096l4.80323-4.80512v-1.06737c-2.17091-1.1265-3.60498-1.39888-3.73682-4.80375 6.81494-6.21625 4.66163-8.74263 3.20313-17.0826 6.53709-4.135 1.61475-8.92125 0.53369-14.4125 2.50927-2.6675 4.16406-6.94625 4.80468-10.1412-2.27734-0.71-3.38574-2.135-3.73681-4.80375 1.9126-2.0275 2.11524-5.0775 3.73681-7.47375l8.00634-7.4725 0.53375-3.7375c0.50775-1.15875 2.28713-2.47625 2.66938-3.73625l-0.53363-6.405c2.5415-0.81625 9.22987-2.79625 11.7436-4.2725 1.52288-0.8925 3.101-3.065 4.80413-3.73625l9.608-0.53375c2.31787-0.58875 5.88962-3.10625 8.5415-2.6675 4.19575 0.6925 8.1035 3.595 11.7436 4.80375 4.395 1.46 10.7192 1.65125 16.0131 3.73625 1.35312 2.19375 3.521 4.77 4.2705 7.47375v7.4725c1.10212 2.7375 3.34962 3.75125 3.73687 8.0075-3.311 3.58625-3.8525 10.07-8.00737 12.81-1.104 0.89-2.21825 1.02-4.27 1.06875-1.40475-1.88125-3.94425-2.94-5.33838-4.805-1.86325-2.49125-3.144-4.83875-5.33787-6.93875l-3.20163-2.135c-2.837-4.22-1.355-11.9662-6.40625-13.8788-0.64412-0.5125-13.0728-1.20625-13.3458-1.0675-0.94575 1.02375-1.01125 1.67375-1.06687 3.73625 1.665 1.05625 2.04975 1.50625 2.13525 4.27-5.50975 3.72625-0.19975 4.65625-1.6015 9.075-0.37313 1.175-2.21688 1.2925-2.6685 2.135-0.82963 1.545-1.54738 5.98875-1.60163 8.0075 1.44875 1.29375 2.41563 2.20875 2.6685 4.80375-2.4565 2.21125-5.64162 4.685-5.87162 9.075 5.713 4.4725-0.17475 5.8 1.06787 10.675 0.91513 3.59375 8.49025 14.99 7.47325 17.6165-1.57675 4.06737-4.65675 2.9175-4.80475 10.142 1.71538 1.17387 4.57225 3.229 5.33838 5.338h-0.53363c-2.17637 1.94325-4.234 1.56737-4.80475 5.33838l1.60163 1.59999 3.73675-1.06737v1.06737c-0.42925 0.54501-0.18988 0.14651-0.53363 1.06738-2.125 0.73-3.734 0.64412-4.271 3.20413 1.20988 1.27987 4.77 6.94724 5.33788 8.54012-1.7495 1.39987-0.46975 2.05462-1.60163 4.27-1.559 3.05362-4.09425-0.19775-4.27 5.872 1.17088 1.57275 0.88775 3.07762 1.60163 5.33787 1.54775 4.89851 3.79975 5.8125 8.00675 8.00738-0.33638 0.936-0.1025 0.5185-0.53363 1.06737-0.93362 2.33888-5.09425 5.24126-6.9395 6.94 1.34475 3.79001 5.17288 4.8125 6.40625 9.07363h-1.06837c-1.1425-0.65088-1.478-0.2075-3.20313 0zm281.845-157.47c-0.8175 1.315-1.2225 1.215-1.60125 3.2025 2.5875 1.76 4.0075 2.52125 7.4725 1.0675 0.5325-1.18875 0.815-1.51875 1.06875-3.2025h-1.06875c-1.27875-1.17375-3.27-1.1425-5.87125-1.0675zm-3.73625 10.675c-1.665 2.36625-3.51625 2.35125-3.73625 6.40625 3.005 3.08875 3.16 5.92625 9.6075 5.8725 2.21125-1.89 4.05875-1.21 8.0075-1.06875 0.56875-1.535 0.9125-1.42125 1.0675-3.73625-4.0075-2.55625-9.66125-6.595-14.9462-7.47375zm6.40625 16.015-3.20375 2.66875v0.535c2.19875 0.74625 2.46625 1.54375 5.8725 1.6 1.58625-1.11125 2.8275-0.77125 3.73625-2.66875l-2.135-2.135h-4.27zm-5.33875 34.1625c-0.8475 1.575-1.1075 3.05375-1.0675 5.8725-1.6225 1.445-0.84875 2.15125 0 3.73625l-1.60125 1.60125 0.53375 0.53375c0.8425 2.74363 5.6025 4.78375 6.93875 3.73638 2.0375-0.94238 2.965-1.39413 3.20375-4.27013 1.51125-2.4525-1.94375-6.6375-2.66875-9.6075-1.8175-0.865-2.555-1.4725-5.33875-1.6025zm1.0675 19.2174c-0.72875 0.70262-1.69625 1.13287-2.66875 1.60162l0.53375 1.601c3.44125 1.09475 6.11625 2.50888 10.6762 1.60113l0.53375-3.20213-1.6025-0.53525c-1.47375-1.33737-4.5525-1.15862-7.4725-1.06637zm-3.2025 8.54012c-1.10625 1.266-1.34625 0.78513-1.60125 3.2035 0.875 0.37263 1.71125 0.36625 2.135 1.06788l-1.0675 1.06737v6.40625c0.165 0.646 0.8625 1.6475 1.0675 2.6675 2.51125 1.12013 2.98625 2.43613 6.405 2.6685 2.335-1.956 5.0575-0.14212 7.47375-1.60112 0.5125-0.75625 0.52125-1.7475 0.53375-3.20263-2.0175-2.25875-2.48-6.44962-3.2025-8.541-3.78-1.3975-8.25625-2.25237-11.7438-3.73625" fill-rule="evenodd" fill="#231f20"/>
 </g>
</svg>
